<svg width="26" height="26" viewBox="0 0 26 26" fill="none" xmlns="http://www.w3.org/2000/svg">
<path d="M9.40911 23.5257V19.8456C9.40909 18.9096 10.2124 18.149 11.2076 18.1427H14.8532C15.8531 18.1427 16.6638 18.9051 16.6638 19.8456V23.5371C16.6636 24.3318 17.338 24.9814 18.1828 25H20.6132C23.0359 25 25 23.1528 25 20.8742V10.4054C24.9871 9.50899 24.5395 8.66722 23.7848 8.11964L15.4729 1.82236C14.0168 0.72588 11.9468 0.72588 10.4906 1.82236L2.21519 8.13107C1.45759 8.67643 1.00933 9.5196 1 10.4168V20.8742C1 23.1528 2.96405 25 5.38684 25H7.81722C8.68297 25 9.38481 24.3399 9.38481 23.5257" stroke="black" strokeWidth="1.7" strokeLinecap="round" strokeLinejoin="round"/>
</svg>
