<svg width="25" height="24" viewBox="0 0 25 24" fill="none" xmlns="http://www.w3.org/2000/svg">
<path fillRule="evenodd" clipRule="evenodd" d="M18.2081 0C22.0802 0 25 3.344 25 7.77846V16.2314C25 18.5009 24.2419 20.5514 22.864 22.0062C21.6279 23.3095 20.0244 24 18.2267 24H6.76977C4.97558 24 3.37326 23.3108 2.13605 22.0062C0.75814 20.5514 0 18.5009 0 16.2314V7.77846C0 3.344 2.91977 0 6.79186 0H18.2081ZM18.2081 1.84615H6.79186C3.86744 1.84615 1.74419 4.34092 1.74419 7.77846V16.2314C1.74419 18.0074 2.32093 19.5938 3.36744 20.6978C4.26977 21.6517 5.44767 22.1538 6.77326 22.1538H18.2081C18.2105 22.1514 18.2198 22.1538 18.2267 22.1538C19.5535 22.1538 20.7302 21.6517 21.6326 20.6978C22.6802 19.5938 23.2558 18.0074 23.2558 16.2314V7.77846C23.2558 4.34092 21.1326 1.84615 18.2081 1.84615ZM20.0407 7.54314C20.3442 7.93822 20.2872 8.51914 19.914 8.8416L14.7465 13.2871C14.093 13.8361 13.3116 14.1105 12.5314 14.1105C11.7535 14.1105 10.9779 13.8385 10.3291 13.2945L5.11395 8.84406C4.73837 8.52406 4.68023 7.94191 4.9814 7.5456C5.28488 7.15052 5.83372 7.08775 6.20814 7.40652L11.4186 11.8521C12.0733 12.401 12.9953 12.401 13.6547 11.8471L18.8128 7.40899C19.1872 7.08529 19.736 7.14683 20.0407 7.54314Z" fill="black"/>
</svg>
